<svg xmlns="http://www.w3.org/2000/svg" width="27" height="25.95" viewBox="0 0 27 25.95">
  <defs>
    <style>
      .cls-1 {
        fill: #728dc4;
      }
    </style>
  </defs>
  <path id="email-icon" class="cls-1" d="M24.281.259a2.423,2.423,0,0,1,1.929.948A3.5,3.5,0,0,1,27,3.522V22.947a3.5,3.5,0,0,1-.79,2.314,2.423,2.423,0,0,1-1.929.948H2.719A2.423,2.423,0,0,1,.79,25.261,3.5,3.5,0,0,1,0,22.947V3.522A3.5,3.5,0,0,1,.79,1.208,2.423,2.423,0,0,1,2.719.259Zm0,6.526V3.522L13.468,11.641,2.719,3.522V6.785l10.749,8.043Z" transform="translate(0 -0.259)"/>
</svg>
