<svg xmlns="http://www.w3.org/2000/svg" width="27" height="26.251" viewBox="0 0 27 26.251">
  <defs>
    <style>
      .cls-1 {
        fill: #728dc4;
      }
    </style>
  </defs>
  <path id="phone-icon" class="cls-1" d="M0,20.732a5.994,5.994,0,0,0,.192,1.314,7.257,7.257,0,0,0,.4,1.277A5.093,5.093,0,0,0,2.934,25.3a7.6,7.6,0,0,0,3.567.951,7.824,7.824,0,0,0,1.016-.065,8.074,8.074,0,0,0,1.1-.233q.6-.168.9-.27t1.064-.382q.767-.28.94-.336a17.591,17.591,0,0,0,3.356-1.547,28.76,28.76,0,0,0,5.062-4.027,28.274,28.274,0,0,0,4.142-4.922,16.683,16.683,0,0,0,1.592-3.263q.058-.168.345-.914t.393-1.035q.105-.289.278-.876a7.477,7.477,0,0,0,.24-1.072A7.2,7.2,0,0,0,27,6.32a7.076,7.076,0,0,0-.978-3.468A5.051,5.051,0,0,0,23.989.578,7.778,7.778,0,0,0,22.676.186,6.5,6.5,0,0,0,21.324,0a1.1,1.1,0,0,0-.4.056Q20.576.168,19.9,1.473q-.211.354-.575,1.007t-.671,1.184q-.307.531-.594,1-.058.075-.336.466a5.18,5.18,0,0,0-.412.662,1.189,1.189,0,0,0-.134.531,1.536,1.536,0,0,0,.547.932,9.268,9.268,0,0,0,1.189,1.025,11.468,11.468,0,0,1,1.189.988q.547.522.547.858a1.23,1.23,0,0,1-.1.419,4.008,4.008,0,0,1-.163.382q-.067.131-.268.447t-.221.354a19.619,19.619,0,0,1-3.337,4.381,20.1,20.1,0,0,1-4.506,3.244q-.038.019-.364.214t-.46.261q-.134.065-.393.158a1.327,1.327,0,0,1-.431.093,1.47,1.47,0,0,1-.882-.531,11.32,11.32,0,0,1-1.016-1.156A9.176,9.176,0,0,0,7.46,17.237a1.605,1.605,0,0,0-.959-.531,1.28,1.28,0,0,0-.547.131,5.389,5.389,0,0,0-.681.4q-.4.27-.479.326-.479.28-1.026.578t-1.218.653q-.671.354-1.036.559-1.342.653-1.457.988A1.018,1.018,0,0,0,0,20.732Z"/>
</svg>
