<?xml version="1.0" encoding="UTF-8"?>
<svg width="700pt" height="700pt" version="1.1" viewBox="0 0 700 700" xmlns="http://www.w3.org/2000/svg">
 <g>
  <path d="m542.5 329.15v-31.652h17.5c9.6719 0 17.5-7.8281 17.5-17.5s-7.8281-17.5-17.5-17.5h-17.5v-17.5h17.5c9.6719 0 17.5-7.8281 17.5-17.5s-7.8281-17.5-17.5-17.5h-17.5v-17.5h17.5c9.6719 0 17.5-7.8281 17.5-17.5s-7.8281-17.5-17.5-17.5h-17.5v-17.5h17.5c9.6719 0 17.5-7.8281 17.5-17.5s-7.8281-17.5-17.5-17.5h-17.5v-17.5c0-28.949-23.551-52.5-52.5-52.5s-52.5 23.551-52.5 52.5v241.65c-37.82 21.84-58.48 65.199-50.91 109.32 7.1797 41.715 39.719 75.555 80.973 84.184 7.4336 1.5547 14.969 2.3398 22.422 2.3398h0.015625c28.043 0 54.414-10.922 74.238-30.746 19.84-19.84 30.762-46.211 30.762-74.254 0-37.719-20.27-72.223-52.5-90.848zm-3.0078 140.36c-13.211 13.211-30.797 20.492-49.492 20.492-5.0586 0-10.203-0.53125-15.277-1.5898-26.898-5.6406-48.945-28.609-53.645-55.867-5.5195-32.145 11.312-63.66 40.949-76.633 6.3555-2.7812 10.473-9.0703 10.473-16.027v-252.38c0-9.6562 7.8438-17.5 17.5-17.5s17.5 7.8438 17.5 17.5v252.38c0 6.957 4.1172 13.246 10.477 16.031 25.531 11.176 42.023 36.332 42.023 64.086 0 18.695-7.2812 36.281-20.508 49.508z"/>
  <path d="m490 367.5c-28.949 0-52.5 23.551-52.5 52.5s23.551 52.5 52.5 52.5 52.5-23.551 52.5-52.5-23.551-52.5-52.5-52.5zm0 70c-9.6562 0-17.5-7.8438-17.5-17.5s7.8438-17.5 17.5-17.5 17.5 7.8438 17.5 17.5-7.8438 17.5-17.5 17.5z"/>
  <path d="m419.4 227.65c-1.2148-4.5117-4.1719-8.3398-8.2188-10.664l-25.652-14.68c0.28906-3.3125 0.42578-6.5938 0.42578-9.8086s-0.13672-6.4961-0.42578-9.8086l25.652-14.68c4.0508-2.3242 7.0078-6.1523 8.2188-10.664 1.2148-4.5117 0.5625-9.3125-1.7773-13.332l-35.324-60.637c-4.8203-8.3047-15.414-11.191-23.824-6.3906l-25.875 14.816c-5.5195-3.7422-11.414-7.0898-17.602-9.9609v-29.344c0-9.6719-7.8281-17.5-17.5-17.5h-70c-9.6719 0-17.5 7.8281-17.5 17.5v29.344c-6.1875 2.8711-12.082 6.2188-17.602 9.9648l-25.875-14.82c-8.375-4.8008-18.988-1.9141-23.824 6.3945l-35.324 60.633c-2.3398 4.0156-2.9883 8.8203-1.7773 13.332 1.2148 4.5117 4.1719 8.3398 8.2188 10.664l25.652 14.68c-0.28906 3.3164-0.42578 6.5977-0.42578 9.8086s0.13672 6.4961 0.42578 9.8086l-25.652 14.68c-4.0508 2.3242-7.0078 6.1523-8.2188 10.664-1.2148 4.5117-0.5625 9.3125 1.7773 13.332l35.324 60.637c4.8359 8.3047 15.449 11.211 23.824 6.3906l25.875-14.816c5.5195 3.7422 11.414 7.0898 17.602 9.9609v29.344c0 9.6719 7.8281 17.5 17.5 17.5h70c9.6719 0 17.5-7.8281 17.5-17.5v-29.344c6.1875-2.8711 12.082-6.2227 17.602-9.9648l25.875 14.816c8.4102 4.8203 19.004 1.9141 23.824-6.3906l35.324-60.637c2.3398-4.0117 2.9922-8.8164 1.7773-13.328zm-70-51.098c1.043 5.5703 1.5547 10.785 1.5547 15.945s-0.51172 10.375-1.5547 15.945c-1.3672 7.3164 2.0508 14.715 8.5273 18.406l20.578 11.758-17.707 30.387-20.816-11.91c-6.3906-3.625-14.391-2.9414-20.012 1.8477-7.9648 6.75-17.723 12.254-28.266 15.961-7.0078 2.457-11.707 9.0703-11.707 16.504v23.602h-35v-23.602c0-7.4336-4.6992-14.047-11.707-16.508-10.543-3.707-20.305-9.2109-28.266-15.961-5.6055-4.7852-13.605-5.4688-20.012-1.8477l-20.816 11.91-17.707-30.387 20.578-11.758c6.4766-3.6914 9.8945-11.09 8.5273-18.406-1.043-5.5664-1.5547-10.797-1.5547-15.941s0.51172-10.375 1.5547-15.945c1.3672-7.3164-2.0508-14.715-8.5273-18.406l-20.578-11.758 17.707-30.387 20.816 11.91c6.4102 3.6406 14.406 2.9414 20.012-1.8477 7.9648-6.75 17.723-12.254 28.266-15.961 7.0078-2.457 11.707-9.0703 11.707-16.504v-23.602h35v23.602c0 7.4336 4.6992 14.047 11.707 16.508 10.543 3.707 20.305 9.2109 28.266 15.961 5.6211 4.7852 13.621 5.4844 20.012 1.8477l20.816-11.91 17.707 30.387-20.578 11.758c-6.4766 3.6875-9.8945 11.09-8.5273 18.402z"/>
  <path d="m262.5 140c-28.949 0-52.5 23.551-52.5 52.5s23.551 52.5 52.5 52.5 52.5-23.551 52.5-52.5-23.551-52.5-52.5-52.5zm0 70c-9.6562 0-17.5-7.8438-17.5-17.5s7.8438-17.5 17.5-17.5 17.5 7.8438 17.5 17.5-7.8438 17.5-17.5 17.5z"/>
 </g>
</svg>
